<?xml version="1.0" standalone="no"?>
<!DOCTYPE svg PUBLIC "-//W3C//DTD SVG 20010904//EN"
 "http://www.w3.org/TR/2001/REC-SVG-20010904/DTD/svg10.dtd">
<svg version="1.0" xmlns="http://www.w3.org/2000/svg"
 width="471.000000pt" height="530.000000pt" viewBox="0 0 471.000000 530.000000"
 preserveAspectRatio="xMidYMid meet">

<g transform="translate(0.000000,530.000000) scale(0.100000,-0.100000)"
fill="#000000" stroke="none">
<path d="M2200 5160 c-25 -15 -147 -82 -270 -150 -124 -67 -270 -148 -325
-180 -55 -31 -179 -101 -275 -155 -96 -53 -231 -129 -300 -168 -69 -39 -172
-98 -230 -130 -206 -117 -416 -231 -457 -249 l-43 -19 0 -1473 0 -1473 68 -31
c85 -39 239 -122 412 -221 74 -43 194 -111 265 -151 253 -142 661 -374 765
-435 58 -34 168 -95 245 -135 77 -40 148 -78 158 -84 14 -9 25 -7 50 8 17 11
77 44 132 74 55 30 172 94 260 142 88 48 241 131 340 185 99 54 216 119 260
145 44 27 121 70 170 97 50 27 205 113 345 190 140 77 284 155 319 173 l64 32
-7 105 c-3 59 -6 362 -6 676 l0 569 -37 -31 c-21 -17 -88 -69 -149 -116 -61
-46 -114 -92 -118 -102 -4 -10 -9 -218 -12 -463 l-4 -445 -38 -26 c-20 -15
-118 -73 -217 -129 -99 -56 -232 -133 -295 -170 -63 -37 -196 -111 -295 -165
-99 -54 -216 -119 -260 -145 -44 -25 -123 -68 -175 -94 -52 -27 -99 -52 -105
-56 -5 -4 -52 -31 -103 -59 l-94 -52 -196 105 c-108 57 -237 128 -287 158 -49
30 -169 99 -265 153 -96 54 -242 137 -325 185 -202 118 -363 208 -463 260
l-82 42 0 1282 0 1282 74 33 c40 18 156 80 257 138 101 58 270 153 374 211
105 57 269 150 365 205 96 55 243 137 325 182 83 45 167 92 187 103 l38 22
192 -104 c106 -57 231 -126 278 -153 47 -28 157 -91 245 -140 88 -49 183 -103
210 -120 140 -86 289 -173 468 -275 l197 -113 -2 -480 c-3 -475 -3 -480 -25
-515 -24 -38 -110 -117 -188 -172 -92 -64 -107 -58 -76 30 49 144 56 234 53
692 l-2 305 -83 42 c-45 23 -111 62 -147 85 -290 190 -672 412 -977 568 l-142
72 -30 -22 c-17 -12 -91 -50 -165 -86 -74 -35 -206 -106 -293 -156 -87 -50
-202 -116 -255 -146 l-98 -54 -1 -1227 c-1 -674 -4 -1320 -8 -1436 -4 -139 -3
-214 4 -222 5 -6 84 -51 175 -99 91 -48 219 -117 285 -154 66 -37 161 -88 210
-114 50 -25 111 -57 136 -72 l46 -26 114 65 c63 35 204 110 314 167 200 103
342 184 635 360 85 51 180 104 210 116 41 17 56 29 62 49 4 15 7 176 8 358 1
183 4 387 7 454 l6 123 46 29 c25 16 73 40 106 52 177 65 312 221 376 437 20
64 17 1182 -2 1182 -7 0 -62 29 -123 64 -61 35 -174 98 -251 141 -161 89 -454
258 -735 423 -304 179 -350 206 -425 247 -38 21 -125 71 -193 112 -68 40 -131
77 -140 82 -12 6 -30 0 -62 -19z m206 -1059 c183 -60 430 -184 548 -274 55
-42 119 -100 143 -129 48 -59 111 -175 148 -271 33 -88 49 -248 36 -353 -17
-133 -95 -313 -176 -402 l-42 -46 45 -61 c59 -80 62 -87 118 -255 l49 -145 0
-160 c0 -185 -12 -239 -77 -349 -91 -154 -293 -316 -526 -421 -200 -91 -463
-130 -584 -87 -65 23 -316 162 -352 195 l-24 22 9 165 c9 160 4 2039 -6 2210
-8 141 -9 140 135 232 69 45 141 88 160 96 39 17 236 71 261 72 9 0 70 -18
135 -39z"/>
<path d="M2115 3840 c-82 -4 -158 -8 -167 -9 -16 -1 -18 -16 -18 -155 l0 -155
53 -5 c28 -3 153 -10 277 -14 252 -10 271 -14 344 -82 66 -61 90 -128 90 -250
-1 -153 -53 -254 -161 -312 -69 -38 -111 -45 -333 -58 -107 -6 -211 -13 -231
-16 l-37 -5 -4 -162 c-3 -89 -4 -163 -3 -165 1 -1 116 -6 256 -10 l255 -8 65
-31 c122 -57 179 -130 199 -257 12 -78 -1 -176 -32 -244 -25 -52 -107 -128
-156 -143 -20 -6 -149 -15 -287 -20 -137 -5 -260 -11 -273 -14 -22 -5 -22 -7
-20 -157 l3 -152 30 -9 c17 -6 138 -10 270 -11 240 -1 240 -1 308 27 237 96
325 172 422 364 59 119 75 217 57 358 -13 105 -51 227 -90 295 -32 54 -155
180 -177 180 -27 0 -16 22 43 86 88 95 138 173 179 275 36 91 37 98 37 224 0
144 -16 208 -77 315 -100 176 -342 311 -577 322 -52 3 -162 2 -245 -2z"/>
<path d="M1100 3914 c-19 -14 -78 -48 -130 -76 -52 -28 -101 -58 -107 -66 -10
-13 -13 -258 -13 -1156 l1 -1141 101 -50 c56 -27 126 -64 155 -82 l54 -32 -3
1311 c-2 863 -6 1312 -13 1314 -5 2 -26 -8 -45 -22z"/>
</g>
</svg>
