<?xml version="1.0" standalone="no"?>
<!DOCTYPE svg PUBLIC "-//W3C//DTD SVG 20010904//EN"
 "http://www.w3.org/TR/2001/REC-SVG-20010904/DTD/svg10.dtd">
<svg version="1.0" xmlns="http://www.w3.org/2000/svg"
 width="260.000000pt" height="260.000000pt" viewBox="0 0 260.000000 260.000000"
 preserveAspectRatio="xMidYMid meet">

<g transform="translate(0.000000,260.000000) scale(0.100000,-0.100000)"
fill="#000000" stroke="none">
<path d="M578 2360 c-159 -28 -287 -156 -318 -320 -14 -72 -13 -1324 0 -1409
26 -154 138 -278 287 -316 54 -14 151 -15 765 -13 l703 3 65 32 c80 39 161
119 198 193 l27 55 0 745 0 745 -33 67 c-41 84 -128 167 -209 200 l-58 23
-690 2 c-379 0 -711 -3 -737 -7z m241 -355 c49 -25 75 -71 79 -140 3 -50 0
-66 -20 -95 -35 -53 -80 -72 -159 -68 -54 3 -73 9 -104 32 -110 84 -76 253 59
287 41 10 109 3 145 -16z m974 -438 c105 -48 177 -154 197 -292 5 -38 10 -197
10 -352 l0 -283 -154 0 -154 0 -4 293 c-3 268 -5 295 -23 331 -25 50 -61 76
-113 83 -51 7 -118 -23 -153 -69 -24 -33 -24 -34 -29 -338 l-5 -305 -157 -3
-158 -3 0 471 0 470 160 0 160 0 0 -52 0 -52 43 41 c74 71 139 95 249 89 54
-3 93 -11 131 -29z m-913 -457 l0 -471 -157 3 -158 3 -3 455 c-1 250 0 461 3
468 3 9 45 12 160 12 l155 0 0 -470z"/>
</g>
</svg>
